<mxfile host="app.diagrams.net" agent="Mozilla/5.0 (Windows NT 10.0; Win64; x64) AppleWebKit/537.36 (KHTML, like Gecko) Chrome/140.0.0.0 Safari/537.36 Edg/140.0.0.0" version="28.2.1">
  <diagram name="Page-1" id="c7558073-3199-34d8-9f00-42111426c3f3">
    <mxGraphModel dx="1773" dy="983" grid="1" gridSize="10" guides="1" tooltips="1" connect="1" arrows="1" fold="1" page="1" pageScale="1" pageWidth="827" pageHeight="1169" background="none" math="0" shadow="0">
      <root>
        <mxCell id="0" />
        <mxCell id="1" parent="0" />
        <mxCell id="7RZN1QD17hf1BqCUszEa-97" style="edgeStyle=orthogonalEdgeStyle;rounded=0;orthogonalLoop=1;jettySize=auto;html=1;entryX=0;entryY=0.5;entryDx=0;entryDy=0;" edge="1" parent="1" source="7RZN1QD17hf1BqCUszEa-96" target="7RZN1QD17hf1BqCUszEa-99">
          <mxGeometry relative="1" as="geometry">
            <mxPoint x="280" y="60" as="targetPoint" />
            <Array as="points">
              <mxPoint x="220" y="180" />
              <mxPoint x="220" y="60" />
            </Array>
          </mxGeometry>
        </mxCell>
        <mxCell id="7RZN1QD17hf1BqCUszEa-131" value="User Details" style="edgeLabel;html=1;align=center;verticalAlign=middle;resizable=0;points=[];" vertex="1" connectable="0" parent="7RZN1QD17hf1BqCUszEa-97">
          <mxGeometry x="0.3425" y="-2" relative="1" as="geometry">
            <mxPoint x="29" y="-2" as="offset" />
          </mxGeometry>
        </mxCell>
        <mxCell id="7RZN1QD17hf1BqCUszEa-106" style="edgeStyle=orthogonalEdgeStyle;rounded=0;orthogonalLoop=1;jettySize=auto;html=1;exitX=0;exitY=0.5;exitDx=0;exitDy=0;entryX=0.5;entryY=1;entryDx=0;entryDy=0;" edge="1" parent="1" source="7RZN1QD17hf1BqCUszEa-101" target="7RZN1QD17hf1BqCUszEa-96">
          <mxGeometry relative="1" as="geometry">
            <mxPoint x="60" y="440" as="targetPoint" />
            <Array as="points">
              <mxPoint x="140" y="460" />
            </Array>
          </mxGeometry>
        </mxCell>
        <mxCell id="7RZN1QD17hf1BqCUszEa-133" value="Thesis Data" style="edgeLabel;html=1;align=center;verticalAlign=middle;resizable=0;points=[];" vertex="1" connectable="0" parent="7RZN1QD17hf1BqCUszEa-106">
          <mxGeometry x="-0.1386" y="1" relative="1" as="geometry">
            <mxPoint x="121" y="9" as="offset" />
          </mxGeometry>
        </mxCell>
        <mxCell id="7RZN1QD17hf1BqCUszEa-120" style="edgeStyle=orthogonalEdgeStyle;rounded=0;orthogonalLoop=1;jettySize=auto;html=1;entryX=0;entryY=0.5;entryDx=0;entryDy=0;" edge="1" parent="1" source="7RZN1QD17hf1BqCUszEa-96" target="7RZN1QD17hf1BqCUszEa-102">
          <mxGeometry relative="1" as="geometry">
            <Array as="points">
              <mxPoint x="220" y="180" />
              <mxPoint x="220" y="140" />
            </Array>
          </mxGeometry>
        </mxCell>
        <mxCell id="7RZN1QD17hf1BqCUszEa-134" value="Content" style="edgeLabel;html=1;align=center;verticalAlign=middle;resizable=0;points=[];" vertex="1" connectable="0" parent="7RZN1QD17hf1BqCUszEa-120">
          <mxGeometry x="0.1679" relative="1" as="geometry">
            <mxPoint x="17" as="offset" />
          </mxGeometry>
        </mxCell>
        <mxCell id="7RZN1QD17hf1BqCUszEa-181" style="edgeStyle=orthogonalEdgeStyle;rounded=0;orthogonalLoop=1;jettySize=auto;html=1;entryX=0;entryY=0.5;entryDx=0;entryDy=0;" edge="1" parent="1" source="7RZN1QD17hf1BqCUszEa-96" target="7RZN1QD17hf1BqCUszEa-177">
          <mxGeometry relative="1" as="geometry">
            <Array as="points">
              <mxPoint x="220" y="180" />
              <mxPoint x="220" y="300" />
            </Array>
          </mxGeometry>
        </mxCell>
        <mxCell id="7RZN1QD17hf1BqCUszEa-96" value="User" style="html=1;dashed=0;whiteSpace=wrap;rounded=0;" vertex="1" parent="1">
          <mxGeometry x="80" y="160" width="120" height="40" as="geometry" />
        </mxCell>
        <mxCell id="7RZN1QD17hf1BqCUszEa-109" style="edgeStyle=orthogonalEdgeStyle;rounded=0;orthogonalLoop=1;jettySize=auto;html=1;entryX=0;entryY=0.5;entryDx=0;entryDy=0;exitX=1;exitY=0.5;exitDx=0;exitDy=0;" edge="1" parent="1" source="7RZN1QD17hf1BqCUszEa-99" target="7RZN1QD17hf1BqCUszEa-108">
          <mxGeometry relative="1" as="geometry">
            <Array as="points">
              <mxPoint x="500" y="60" />
              <mxPoint x="500" y="60" />
            </Array>
          </mxGeometry>
        </mxCell>
        <mxCell id="7RZN1QD17hf1BqCUszEa-113" value="User Details" style="edgeLabel;html=1;align=center;verticalAlign=middle;resizable=0;points=[];" vertex="1" connectable="0" parent="7RZN1QD17hf1BqCUszEa-109">
          <mxGeometry x="-0.669" y="2" relative="1" as="geometry">
            <mxPoint x="53" y="2" as="offset" />
          </mxGeometry>
        </mxCell>
        <mxCell id="7RZN1QD17hf1BqCUszEa-99" value="Register" style="html=1;dashed=0;whiteSpace=wrap;glass=0;rounded=1;" vertex="1" parent="1">
          <mxGeometry x="320" y="40" width="120" height="40" as="geometry" />
        </mxCell>
        <mxCell id="7RZN1QD17hf1BqCUszEa-107" style="edgeStyle=orthogonalEdgeStyle;rounded=0;orthogonalLoop=1;jettySize=auto;html=1;exitX=0.5;exitY=0;exitDx=0;exitDy=0;" edge="1" parent="1" source="7RZN1QD17hf1BqCUszEa-125" target="7RZN1QD17hf1BqCUszEa-101">
          <mxGeometry relative="1" as="geometry">
            <mxPoint x="520" y="440" as="sourcePoint" />
            <Array as="points">
              <mxPoint x="660" y="460" />
            </Array>
          </mxGeometry>
        </mxCell>
        <mxCell id="7RZN1QD17hf1BqCUszEa-112" value="Thesis Data" style="edgeLabel;html=1;align=center;verticalAlign=middle;resizable=0;points=[];" vertex="1" connectable="0" parent="7RZN1QD17hf1BqCUszEa-107">
          <mxGeometry x="0.0417" y="-2" relative="1" as="geometry">
            <mxPoint as="offset" />
          </mxGeometry>
        </mxCell>
        <mxCell id="7RZN1QD17hf1BqCUszEa-101" value="Search" style="html=1;dashed=0;whiteSpace=wrap;glass=0;rounded=1;" vertex="1" parent="1">
          <mxGeometry x="320" y="440" width="120" height="40" as="geometry" />
        </mxCell>
        <mxCell id="7RZN1QD17hf1BqCUszEa-117" style="edgeStyle=orthogonalEdgeStyle;rounded=0;orthogonalLoop=1;jettySize=auto;html=1;entryX=0;entryY=0.5;entryDx=0;entryDy=0;" edge="1" parent="1" source="7RZN1QD17hf1BqCUszEa-102" target="7RZN1QD17hf1BqCUszEa-116">
          <mxGeometry relative="1" as="geometry">
            <Array as="points">
              <mxPoint x="460" y="140" />
              <mxPoint x="460" y="220" />
            </Array>
          </mxGeometry>
        </mxCell>
        <mxCell id="7RZN1QD17hf1BqCUszEa-118" value="Comment in comment" style="edgeLabel;html=1;align=center;verticalAlign=middle;resizable=0;points=[];" vertex="1" connectable="0" parent="7RZN1QD17hf1BqCUszEa-117">
          <mxGeometry x="0.2338" y="-1" relative="1" as="geometry">
            <mxPoint x="12" y="-1" as="offset" />
          </mxGeometry>
        </mxCell>
        <mxCell id="7RZN1QD17hf1BqCUszEa-102" value="Comment" style="html=1;dashed=0;whiteSpace=wrap;glass=0;rounded=1;" vertex="1" parent="1">
          <mxGeometry x="320" y="120" width="120" height="40" as="geometry" />
        </mxCell>
        <mxCell id="7RZN1QD17hf1BqCUszEa-108" value="User" style="html=1;dashed=0;whiteSpace=wrap;shape=partialRectangle;right=0;" vertex="1" parent="1">
          <mxGeometry x="600" y="40" width="120" height="40" as="geometry" />
        </mxCell>
        <mxCell id="7RZN1QD17hf1BqCUszEa-111" value="Comment" style="html=1;dashed=0;whiteSpace=wrap;shape=partialRectangle;right=0;" vertex="1" parent="1">
          <mxGeometry x="600" y="120" width="120" height="40" as="geometry" />
        </mxCell>
        <mxCell id="7RZN1QD17hf1BqCUszEa-114" value="C" style="edgeStyle=orthogonalEdgeStyle;rounded=0;orthogonalLoop=1;jettySize=auto;html=1;entryX=0;entryY=0.5;entryDx=0;entryDy=0;" edge="1" parent="1" source="7RZN1QD17hf1BqCUszEa-102" target="7RZN1QD17hf1BqCUszEa-111">
          <mxGeometry relative="1" as="geometry" />
        </mxCell>
        <mxCell id="7RZN1QD17hf1BqCUszEa-115" value="Comment" style="edgeLabel;html=1;align=center;verticalAlign=middle;resizable=0;points=[];" vertex="1" connectable="0" parent="7RZN1QD17hf1BqCUszEa-114">
          <mxGeometry x="-0.2238" y="1" relative="1" as="geometry">
            <mxPoint x="23" y="1" as="offset" />
          </mxGeometry>
        </mxCell>
        <mxCell id="7RZN1QD17hf1BqCUszEa-116" value="Sub Comment" style="html=1;dashed=0;whiteSpace=wrap;shape=partialRectangle;right=0;" vertex="1" parent="1">
          <mxGeometry x="600" y="200" width="120" height="40" as="geometry" />
        </mxCell>
        <mxCell id="7RZN1QD17hf1BqCUszEa-126" style="edgeStyle=orthogonalEdgeStyle;rounded=0;orthogonalLoop=1;jettySize=auto;html=1;entryX=0;entryY=0.5;entryDx=0;entryDy=0;" edge="1" parent="1" source="7RZN1QD17hf1BqCUszEa-122" target="7RZN1QD17hf1BqCUszEa-125">
          <mxGeometry relative="1" as="geometry" />
        </mxCell>
        <mxCell id="7RZN1QD17hf1BqCUszEa-127" value="Thesis Data" style="edgeLabel;html=1;align=center;verticalAlign=middle;resizable=0;points=[];" vertex="1" connectable="0" parent="7RZN1QD17hf1BqCUszEa-126">
          <mxGeometry x="-0.2107" relative="1" as="geometry">
            <mxPoint as="offset" />
          </mxGeometry>
        </mxCell>
        <mxCell id="7RZN1QD17hf1BqCUszEa-122" value="Create Thesis" style="html=1;dashed=0;whiteSpace=wrap;glass=0;rounded=1;" vertex="1" parent="1">
          <mxGeometry x="320" y="520" width="120" height="40" as="geometry" />
        </mxCell>
        <mxCell id="7RZN1QD17hf1BqCUszEa-124" style="edgeStyle=orthogonalEdgeStyle;rounded=0;orthogonalLoop=1;jettySize=auto;html=1;entryX=0;entryY=0.5;entryDx=0;entryDy=0;" edge="1" parent="1" source="7RZN1QD17hf1BqCUszEa-123" target="7RZN1QD17hf1BqCUszEa-122">
          <mxGeometry relative="1" as="geometry" />
        </mxCell>
        <mxCell id="7RZN1QD17hf1BqCUszEa-128" value="Create new&amp;nbsp;&lt;div&gt;Thesis&lt;/div&gt;" style="edgeLabel;html=1;align=center;verticalAlign=middle;resizable=0;points=[];" vertex="1" connectable="0" parent="7RZN1QD17hf1BqCUszEa-124">
          <mxGeometry x="-0.1861" y="3" relative="1" as="geometry">
            <mxPoint x="11" y="3" as="offset" />
          </mxGeometry>
        </mxCell>
        <mxCell id="7RZN1QD17hf1BqCUszEa-136" style="edgeStyle=orthogonalEdgeStyle;rounded=0;orthogonalLoop=1;jettySize=auto;html=1;entryX=0;entryY=0.5;entryDx=0;entryDy=0;" edge="1" parent="1" source="7RZN1QD17hf1BqCUszEa-123" target="7RZN1QD17hf1BqCUszEa-135">
          <mxGeometry relative="1" as="geometry">
            <Array as="points">
              <mxPoint x="220" y="540" />
              <mxPoint x="220" y="620" />
            </Array>
          </mxGeometry>
        </mxCell>
        <mxCell id="7RZN1QD17hf1BqCUszEa-137" value="Thesis Data" style="edgeLabel;html=1;align=center;verticalAlign=middle;resizable=0;points=[];" vertex="1" connectable="0" parent="7RZN1QD17hf1BqCUszEa-136">
          <mxGeometry x="0.3717" y="-4" relative="1" as="geometry">
            <mxPoint x="13" y="-4" as="offset" />
          </mxGeometry>
        </mxCell>
        <mxCell id="7RZN1QD17hf1BqCUszEa-123" value="Student" style="html=1;dashed=0;whiteSpace=wrap;rounded=0;" vertex="1" parent="1">
          <mxGeometry x="80" y="520" width="120" height="40" as="geometry" />
        </mxCell>
        <mxCell id="7RZN1QD17hf1BqCUszEa-125" value="Thesis" style="html=1;dashed=0;whiteSpace=wrap;shape=partialRectangle;right=0;" vertex="1" parent="1">
          <mxGeometry x="600" y="520" width="120" height="40" as="geometry" />
        </mxCell>
        <mxCell id="7RZN1QD17hf1BqCUszEa-138" style="edgeStyle=orthogonalEdgeStyle;rounded=0;orthogonalLoop=1;jettySize=auto;html=1;entryX=0;entryY=0.5;entryDx=0;entryDy=0;" edge="1" parent="1" source="7RZN1QD17hf1BqCUszEa-135" target="7RZN1QD17hf1BqCUszEa-125">
          <mxGeometry relative="1" as="geometry">
            <Array as="points">
              <mxPoint x="560" y="620" />
              <mxPoint x="560" y="540" />
            </Array>
          </mxGeometry>
        </mxCell>
        <mxCell id="7RZN1QD17hf1BqCUszEa-139" value="Update Thesis" style="edgeLabel;html=1;align=center;verticalAlign=middle;resizable=0;points=[];" vertex="1" connectable="0" parent="7RZN1QD17hf1BqCUszEa-138">
          <mxGeometry x="-0.6069" y="-1" relative="1" as="geometry">
            <mxPoint x="13" y="-1" as="offset" />
          </mxGeometry>
        </mxCell>
        <mxCell id="7RZN1QD17hf1BqCUszEa-153" style="edgeStyle=orthogonalEdgeStyle;rounded=0;orthogonalLoop=1;jettySize=auto;html=1;exitX=0.5;exitY=1;exitDx=0;exitDy=0;entryX=0.5;entryY=0;entryDx=0;entryDy=0;" edge="1" parent="1" source="7RZN1QD17hf1BqCUszEa-135" target="7RZN1QD17hf1BqCUszEa-152">
          <mxGeometry relative="1" as="geometry">
            <mxPoint x="480" y="660" as="targetPoint" />
            <Array as="points" />
          </mxGeometry>
        </mxCell>
        <mxCell id="7RZN1QD17hf1BqCUszEa-154" value="Trigger Update Thesis" style="edgeLabel;html=1;align=center;verticalAlign=middle;resizable=0;points=[];" vertex="1" connectable="0" parent="7RZN1QD17hf1BqCUszEa-153">
          <mxGeometry x="0.081" y="-1" relative="1" as="geometry">
            <mxPoint x="1" y="-1" as="offset" />
          </mxGeometry>
        </mxCell>
        <mxCell id="7RZN1QD17hf1BqCUszEa-135" value="Update Thesis" style="html=1;dashed=0;whiteSpace=wrap;glass=0;rounded=1;" vertex="1" parent="1">
          <mxGeometry x="320" y="600" width="120" height="40" as="geometry" />
        </mxCell>
        <mxCell id="7RZN1QD17hf1BqCUszEa-157" style="edgeStyle=orthogonalEdgeStyle;rounded=0;orthogonalLoop=1;jettySize=auto;html=1;entryX=0.5;entryY=0;entryDx=0;entryDy=0;exitX=0;exitY=0.75;exitDx=0;exitDy=0;" edge="1" parent="1" source="7RZN1QD17hf1BqCUszEa-152" target="7RZN1QD17hf1BqCUszEa-156">
          <mxGeometry relative="1" as="geometry">
            <mxPoint x="530" y="819.5699999999999" as="sourcePoint" />
            <Array as="points">
              <mxPoint x="140" y="750" />
            </Array>
          </mxGeometry>
        </mxCell>
        <mxCell id="7RZN1QD17hf1BqCUszEa-158" value="Notice Thesis Update" style="edgeLabel;html=1;align=center;verticalAlign=middle;resizable=0;points=[];" vertex="1" connectable="0" parent="7RZN1QD17hf1BqCUszEa-157">
          <mxGeometry x="0.6738" y="-1" relative="1" as="geometry">
            <mxPoint x="91" y="-46" as="offset" />
          </mxGeometry>
        </mxCell>
        <mxCell id="7RZN1QD17hf1BqCUszEa-164" style="edgeStyle=orthogonalEdgeStyle;rounded=0;orthogonalLoop=1;jettySize=auto;html=1;entryX=0;entryY=0.5;entryDx=0;entryDy=0;exitX=1;exitY=0.5;exitDx=0;exitDy=0;" edge="1" parent="1" source="7RZN1QD17hf1BqCUszEa-152" target="7RZN1QD17hf1BqCUszEa-163">
          <mxGeometry relative="1" as="geometry">
            <mxPoint x="640" y="700" as="sourcePoint" />
          </mxGeometry>
        </mxCell>
        <mxCell id="7RZN1QD17hf1BqCUszEa-165" value="Create New Notice Object" style="edgeLabel;html=1;align=center;verticalAlign=middle;resizable=0;points=[];" vertex="1" connectable="0" parent="7RZN1QD17hf1BqCUszEa-164">
          <mxGeometry x="-0.0379" y="2" relative="1" as="geometry">
            <mxPoint x="3" y="2" as="offset" />
          </mxGeometry>
        </mxCell>
        <mxCell id="7RZN1QD17hf1BqCUszEa-166" style="edgeStyle=orthogonalEdgeStyle;rounded=0;orthogonalLoop=1;jettySize=auto;html=1;entryX=0.5;entryY=1;entryDx=0;entryDy=0;exitX=0.75;exitY=0;exitDx=0;exitDy=0;" edge="1" parent="1" source="7RZN1QD17hf1BqCUszEa-152" target="7RZN1QD17hf1BqCUszEa-168">
          <mxGeometry relative="1" as="geometry">
            <mxPoint x="800" y="660" as="targetPoint" />
            <mxPoint x="630" y="680" as="sourcePoint" />
            <Array as="points">
              <mxPoint x="410" y="700" />
              <mxPoint x="660" y="700" />
            </Array>
          </mxGeometry>
        </mxCell>
        <mxCell id="7RZN1QD17hf1BqCUszEa-170" value="classify reciver" style="edgeLabel;html=1;align=center;verticalAlign=middle;resizable=0;points=[];" vertex="1" connectable="0" parent="7RZN1QD17hf1BqCUszEa-166">
          <mxGeometry x="0.6876" y="-1" relative="1" as="geometry">
            <mxPoint x="-131" y="8" as="offset" />
          </mxGeometry>
        </mxCell>
        <mxCell id="7RZN1QD17hf1BqCUszEa-169" style="edgeStyle=orthogonalEdgeStyle;rounded=0;orthogonalLoop=1;jettySize=auto;html=1;entryX=0.5;entryY=0;entryDx=0;entryDy=0;exitX=0.75;exitY=1;exitDx=0;exitDy=0;" edge="1" parent="1" source="7RZN1QD17hf1BqCUszEa-152" target="7RZN1QD17hf1BqCUszEa-167">
          <mxGeometry relative="1" as="geometry">
            <mxPoint x="660" y="720" as="sourcePoint" />
            <Array as="points">
              <mxPoint x="410" y="780" />
              <mxPoint x="660" y="780" />
            </Array>
          </mxGeometry>
        </mxCell>
        <mxCell id="7RZN1QD17hf1BqCUszEa-172" value="classify sender" style="edgeLabel;html=1;align=center;verticalAlign=middle;resizable=0;points=[];" vertex="1" connectable="0" parent="7RZN1QD17hf1BqCUszEa-169">
          <mxGeometry x="0.6834" y="2" relative="1" as="geometry">
            <mxPoint x="-131" y="-8" as="offset" />
          </mxGeometry>
        </mxCell>
        <mxCell id="7RZN1QD17hf1BqCUszEa-175" style="edgeStyle=orthogonalEdgeStyle;rounded=0;orthogonalLoop=1;jettySize=auto;html=1;entryX=0.5;entryY=1;entryDx=0;entryDy=0;exitX=0;exitY=0.25;exitDx=0;exitDy=0;" edge="1" parent="1" source="7RZN1QD17hf1BqCUszEa-152" target="7RZN1QD17hf1BqCUszEa-123">
          <mxGeometry relative="1" as="geometry">
            <mxPoint x="420" y="720" as="sourcePoint" />
          </mxGeometry>
        </mxCell>
        <mxCell id="7RZN1QD17hf1BqCUszEa-176" value="Approve Notice" style="edgeLabel;html=1;align=center;verticalAlign=middle;resizable=0;points=[];" vertex="1" connectable="0" parent="7RZN1QD17hf1BqCUszEa-175">
          <mxGeometry x="0.0494" relative="1" as="geometry">
            <mxPoint x="90" y="3" as="offset" />
          </mxGeometry>
        </mxCell>
        <mxCell id="7RZN1QD17hf1BqCUszEa-152" value="Notification" style="html=1;dashed=0;whiteSpace=wrap;glass=0;rounded=1;" vertex="1" parent="1">
          <mxGeometry x="320" y="720" width="120" height="40" as="geometry" />
        </mxCell>
        <mxCell id="7RZN1QD17hf1BqCUszEa-160" style="edgeStyle=orthogonalEdgeStyle;rounded=0;orthogonalLoop=1;jettySize=auto;html=1;entryX=0;entryY=0.5;entryDx=0;entryDy=0;" edge="1" parent="1" source="7RZN1QD17hf1BqCUszEa-156" target="7RZN1QD17hf1BqCUszEa-159">
          <mxGeometry relative="1" as="geometry" />
        </mxCell>
        <mxCell id="7RZN1QD17hf1BqCUszEa-161" value="Yes / No&lt;div&gt;And Comment&lt;/div&gt;" style="edgeLabel;html=1;align=center;verticalAlign=middle;resizable=0;points=[];" vertex="1" connectable="0" parent="7RZN1QD17hf1BqCUszEa-160">
          <mxGeometry x="-0.0931" y="-1" relative="1" as="geometry">
            <mxPoint as="offset" />
          </mxGeometry>
        </mxCell>
        <mxCell id="7RZN1QD17hf1BqCUszEa-156" value="Teacher" style="html=1;dashed=0;whiteSpace=wrap;rounded=0;" vertex="1" parent="1">
          <mxGeometry x="80" y="840" width="120" height="40" as="geometry" />
        </mxCell>
        <mxCell id="7RZN1QD17hf1BqCUszEa-173" style="edgeStyle=orthogonalEdgeStyle;rounded=0;orthogonalLoop=1;jettySize=auto;html=1;entryX=0.5;entryY=1;entryDx=0;entryDy=0;" edge="1" parent="1" source="7RZN1QD17hf1BqCUszEa-159" target="7RZN1QD17hf1BqCUszEa-152">
          <mxGeometry relative="1" as="geometry">
            <mxPoint x="660" y="839.5699999999999" as="targetPoint" />
          </mxGeometry>
        </mxCell>
        <mxCell id="7RZN1QD17hf1BqCUszEa-174" value="Yes / No&lt;div&gt;And Comment&lt;/div&gt;" style="edgeLabel;html=1;align=center;verticalAlign=middle;resizable=0;points=[];" vertex="1" connectable="0" parent="7RZN1QD17hf1BqCUszEa-173">
          <mxGeometry x="-0.3265" y="-1" relative="1" as="geometry">
            <mxPoint x="-1" y="-13" as="offset" />
          </mxGeometry>
        </mxCell>
        <mxCell id="7RZN1QD17hf1BqCUszEa-159" value="Approve" style="html=1;dashed=0;whiteSpace=wrap;glass=0;rounded=1;" vertex="1" parent="1">
          <mxGeometry x="320" y="840" width="120" height="40" as="geometry" />
        </mxCell>
        <mxCell id="7RZN1QD17hf1BqCUszEa-163" value="Notice Object" style="html=1;dashed=0;whiteSpace=wrap;shape=partialRectangle;right=0;" vertex="1" parent="1">
          <mxGeometry x="600" y="720" width="120" height="40" as="geometry" />
        </mxCell>
        <mxCell id="7RZN1QD17hf1BqCUszEa-167" value="Notice" style="html=1;dashed=0;whiteSpace=wrap;shape=partialRectangle;right=0;" vertex="1" parent="1">
          <mxGeometry x="600" y="840" width="120" height="40" as="geometry" />
        </mxCell>
        <mxCell id="7RZN1QD17hf1BqCUszEa-168" value="Notice Reciver" style="html=1;dashed=0;whiteSpace=wrap;shape=partialRectangle;right=0;" vertex="1" parent="1">
          <mxGeometry x="600" y="600" width="120" height="40" as="geometry" />
        </mxCell>
        <mxCell id="7RZN1QD17hf1BqCUszEa-179" style="edgeStyle=orthogonalEdgeStyle;rounded=0;orthogonalLoop=1;jettySize=auto;html=1;entryX=0;entryY=0.5;entryDx=0;entryDy=0;" edge="1" parent="1" source="7RZN1QD17hf1BqCUszEa-177" target="7RZN1QD17hf1BqCUszEa-178">
          <mxGeometry relative="1" as="geometry" />
        </mxCell>
        <mxCell id="7RZN1QD17hf1BqCUszEa-180" value="Update Data" style="edgeLabel;html=1;align=center;verticalAlign=middle;resizable=0;points=[];" vertex="1" connectable="0" parent="7RZN1QD17hf1BqCUszEa-179">
          <mxGeometry x="-0.1388" y="2" relative="1" as="geometry">
            <mxPoint y="2" as="offset" />
          </mxGeometry>
        </mxCell>
        <mxCell id="7RZN1QD17hf1BqCUszEa-177" value="Read Thesis" style="html=1;dashed=0;whiteSpace=wrap;glass=0;rounded=1;" vertex="1" parent="1">
          <mxGeometry x="320" y="280" width="120" height="40" as="geometry" />
        </mxCell>
        <mxCell id="7RZN1QD17hf1BqCUszEa-178" value="Statistic" style="html=1;dashed=0;whiteSpace=wrap;shape=partialRectangle;right=0;" vertex="1" parent="1">
          <mxGeometry x="600" y="280" width="120" height="40" as="geometry" />
        </mxCell>
        <mxCell id="7RZN1QD17hf1BqCUszEa-186" style="edgeStyle=orthogonalEdgeStyle;rounded=0;orthogonalLoop=1;jettySize=auto;html=1;exitX=1;exitY=0.5;exitDx=0;exitDy=0;entryX=0;entryY=0.5;entryDx=0;entryDy=0;" edge="1" parent="1" source="7RZN1QD17hf1BqCUszEa-96" target="7RZN1QD17hf1BqCUszEa-182">
          <mxGeometry relative="1" as="geometry">
            <Array as="points">
              <mxPoint x="220" y="180" />
              <mxPoint x="220" y="380" />
            </Array>
          </mxGeometry>
        </mxCell>
        <mxCell id="7RZN1QD17hf1BqCUszEa-187" value="Thesis id" style="edgeLabel;html=1;align=center;verticalAlign=middle;resizable=0;points=[];" vertex="1" connectable="0" parent="7RZN1QD17hf1BqCUszEa-186">
          <mxGeometry x="-0.5044" y="3" relative="1" as="geometry">
            <mxPoint x="37" y="141" as="offset" />
          </mxGeometry>
        </mxCell>
        <mxCell id="7RZN1QD17hf1BqCUszEa-190" style="edgeStyle=orthogonalEdgeStyle;rounded=0;orthogonalLoop=1;jettySize=auto;html=1;entryX=0.5;entryY=1;entryDx=0;entryDy=0;exitX=0.5;exitY=1;exitDx=0;exitDy=0;" edge="1" parent="1" source="7RZN1QD17hf1BqCUszEa-182" target="7RZN1QD17hf1BqCUszEa-96">
          <mxGeometry relative="1" as="geometry" />
        </mxCell>
        <mxCell id="7RZN1QD17hf1BqCUszEa-191" value="PDF File With watermark" style="edgeLabel;html=1;align=center;verticalAlign=middle;resizable=0;points=[];" vertex="1" connectable="0" parent="7RZN1QD17hf1BqCUszEa-190">
          <mxGeometry x="-0.3612" y="1" relative="1" as="geometry">
            <mxPoint x="-7" as="offset" />
          </mxGeometry>
        </mxCell>
        <mxCell id="7RZN1QD17hf1BqCUszEa-182" value="Download" style="html=1;dashed=0;whiteSpace=wrap;glass=0;rounded=1;" vertex="1" parent="1">
          <mxGeometry x="320" y="360" width="120" height="40" as="geometry" />
        </mxCell>
        <mxCell id="7RZN1QD17hf1BqCUszEa-184" style="edgeStyle=orthogonalEdgeStyle;rounded=0;orthogonalLoop=1;jettySize=auto;html=1;entryX=1;entryY=0.5;entryDx=0;entryDy=0;exitX=0.5;exitY=0;exitDx=0;exitDy=0;" edge="1" parent="1" source="7RZN1QD17hf1BqCUszEa-125" target="7RZN1QD17hf1BqCUszEa-182">
          <mxGeometry relative="1" as="geometry">
            <mxPoint x="600" y="460" as="sourcePoint" />
          </mxGeometry>
        </mxCell>
        <mxCell id="7RZN1QD17hf1BqCUszEa-185" value="PDF File" style="edgeLabel;html=1;align=center;verticalAlign=middle;resizable=0;points=[];" vertex="1" connectable="0" parent="7RZN1QD17hf1BqCUszEa-184">
          <mxGeometry x="0.2375" y="2" relative="1" as="geometry">
            <mxPoint x="19" y="-2" as="offset" />
          </mxGeometry>
        </mxCell>
      </root>
    </mxGraphModel>
  </diagram>
</mxfile>
